<svg width="162" height="81" viewBox="0 0 162 81" fill="none" xmlns="http://www.w3.org/2000/svg">
<path d="M56.5848 1H151C156.523 1 161 5.47715 161 11V70C161 75.5229 156.523 80 151 80H16.9001C8.89449 80 4.1344 71.0616 8.60246 64.4188L48.2872 5.41883C50.1451 2.65658 53.2558 1 56.5848 1Z" stroke="#39C5BB" stroke-width="2"/>
<mask id="mask0_33_877" style="mask-type:alpha" maskUnits="userSpaceOnUse" x="7" y="2" width="153" height="77">
<path d="M160 11C160 6.02944 155.971 2 151 2H56.5848C53.5887 2 50.7891 3.49092 49.1169 5.97695L9.43222 64.9769C5.41097 70.9554 9.69505 79 16.9001 79H151C155.971 79 160 74.9706 160 70V11Z" fill="#D9D9D9"/>
</mask>
<g mask="url(#mask0_33_877)">
<path d="M52.1934 1.43326H160.98V80.5668H-2.65639L52.1934 1.43326Z" fill="white"/>
</g>
</svg>
